<?xml version="1.0" encoding="utf-8"?>
<svg id="master-artboard" viewBox="0 0 625.2802734375 85.21304321289062" version="1.1" xmlns="http://www.w3.org/2000/svg" x="0px" y="0px" style="enable-background:new 0 0 336 235.2;" width="625.2802734375px" height="85.21304321289062px" xmlns:xlink="http://www.w3.org/1999/xlink"><rect id="ee-background" x="0" y="0" width="625.2802734375" height="85.21304321289062" style="fill: white; fill-opacity: 0; pointer-events: none;"/><g transform="matrix(1.2760417461395264, 0, 0, 1.2760417461395264, -340.69329833984375, -445.96411320212997)"><metadata id="metadata288030">
    
  </metadata><linearGradient spreadMethod="pad" y2="30%" x2="-10%" y1="120%" x1="30%" id="3d_gradient2-logo-d2e37e5d-c7d5-4813-869b-94362a984f6a">
    <stop id="stop288005" stop-opacity="1" stop-color="#ffffff" offset="0%"/>
    <stop id="stop288007" stop-opacity="1" stop-color="#000000" offset="100%"/>
  </linearGradient><linearGradient gradientTransform="rotate(-30)" spreadMethod="pad" y2="30%" x2="-10%" y1="120%" x1="30%" id="3d_gradient3-logo-d2e37e5d-c7d5-4813-869b-94362a984f6a">
    <stop id="stop288010" stop-opacity="1" stop-color="#ffffff" offset="0%"/>
    <stop id="stop288012" stop-opacity="1" stop-color="#cccccc" offset="50%"/>
    <stop id="stop288014" stop-opacity="1" stop-color="#000000" offset="100%"/>
  </linearGradient><g id="logo-group">
    <image id="container" x="272" y="144" width="480" height="480" style="display: none;" transform="translate(0 0)" xlink:href=""/>
    <g id="logo-center" transform="translate(-1.1368683772161603e-13 0)">
      <image id="icon_container" x="0" y="0" style="display: none;" xlink:href=""/>
      <g id="slogan" style="font-style:normal;font-weight:500;font-size:32px;line-height:1;font-family:Montserrat;font-variant-ligatures:none;text-align:center;text-anchor:middle" transform="translate(0 0)"/>
      <g id="title" style="font-style:normal;font-weight:normal;font-size:72px;line-height:1;font-family:'Brandmark Sans 2 Color';font-variant-ligatures:normal;text-align:center;text-anchor:middle" transform="translate(0 0)">
        <g id="path288033" aria-label="^P" transform="translate(0 310.99600000000004) translate(273.93115159999996 45.032) scale(1.11) translate(-314.54 50.4)"> <path class="c1" d="M119.6582,91.50342c0,3.95996-0.79199,7.20068-2.30469,9.79248c0.14453-1.08008,0.2168-2.44824,0-3.95996 c-0.14355-1.0083-0.35938-4.82471-3.8877-8.35303c-5.1123-5.04053-12.38574-4.82422-13.39355-4.82422h-8.71289v15.40918h8.71289 c5.18457,0,8.35254-1.80029,8.92871-6.26465c3.3125,4.17676,2.16016,11.59326-1.51172,13.89795 c-1.94434,1.22363-3.52832,1.43945-5.1123,1.51172c-0.50488,0-1.00879,0-1.58496,0h-9.28809v16.48926H80.19824v-50.4043h20.59375 c12.09766,0,19.00977,5.40039,19.00977,16.48926L119.6582,91.50342z" transform="translate(234.34176 -125.19785)" stroke-width="0" stroke-linejoin="miter" stroke-miterlimit="2" fill="#4c791e" stroke="#4c791e"/> </g>
        <g id="path288035" aria-label="E" transform="translate(0 310.99600000000004) translate(331.59912589999993 45.19183999999999) scale(1.11) translate(-362.49313 50.256)"> <path class="c1" d="M118.82959,115.9856v9.2168H81.17041V74.79761h36.86719v9.2168H92.40381v31.89893L118.82959,115.9856z M99.46045,104.60864l1.2959-9.21729h14.83301v9.21729H99.46045z" transform="translate(281.32272 -125.05361)" stroke-width="0" stroke-linejoin="miter" stroke-miterlimit="2" fill="#4c791e" stroke="#4c791e"/> </g>
        <g id="path288037" aria-label="T" transform="translate(0 310.99600000000004) translate(382.52633659999987 44.952079999999995) scale(1.11) translate(-404.3735 50.472)"> <path class="c1" d="M120.19775,74.79785v9.50488H79.80225v-9.50488H120.19775z M94.2749,89.99121 c5.25684-4.17627,11.2334,0,11.2334,0v35.21094H94.20361V89.99121H94.2749z" transform="translate(324.57125 -125.26985)" stroke-width="0" stroke-linejoin="miter" stroke-miterlimit="2" fill="#4c791e" stroke="#4c791e"/> </g>
        <g id="path288039" aria-label="S" transform="translate(0 310.99600000000004) translate(435.4690297999999 44.39263999999999) scale(1.11) translate(-448.06962 50.976)"> <path class="c1" d="M104.28467,95.17578c7.48926,2.23193,15.91309,4.82422,15.91309,15.40918 c0,9.2168-7.41602,15.19336-18.86523,15.19336c-7.7041,0-15.69727-2.95215-21.53027-7.84863l4.32129-9.07227 c4.89551,4.32031,12.09668,7.41602,17.35352,7.41602c4.24805,0,6.76855-1.87207,6.76855-5.04004 c0-4.17676-4.6084-5.54492-9.9375-7.12891c-7.34473-2.16016-15.69727-4.6084-15.69727-14.90527 c0-9.07275,7.34473-14.97754,18.79395-14.97754c6.55273,0,13.39258,2.01611,18.43359,5.40039l-4.24902,9.28906 c-5.1123-3.02441-11.30469-5.11279-15.26465-5.11279c-3.67285,0-5.83301,1.58447-5.83301,4.24854 c0,4.03223,4.53711,5.40039,9.7207,6.98486L104.28467,95.17578z" transform="translate(368.26736 -125.19768)" stroke-width="0" stroke-linejoin="miter" stroke-miterlimit="2" fill="#4c791e" stroke="#4c791e"/> </g>
        <g id="path288041" aria-label="T" transform="translate(0 310.99600000000004) translate(489.12102409999983 44.952079999999995) scale(1.11) translate(-492.40475 50.472)"> <path class="c1" d="M120.19775,74.79785v9.50488H79.80225v-9.50488H120.19775z M94.2749,89.99121 c5.25684-4.17627,11.2334,0,11.2334,0v35.21094H94.20361V89.99121H94.2749z" transform="translate(412.6025 -125.26985)" stroke-width="0" stroke-linejoin="miter" stroke-miterlimit="2" fill="#4c791e" stroke="#4c791e"/> </g>
        <g id="path288043" aria-label="A" transform="translate(0 310.99600000000004) translate(533.1251758999999 45.032) scale(1.11) translate(-528.04813 50.4)"> <path d="M 106.19287109375 74.7978515625 L 94.23975372314453 74.7978515625 L 73.78955078125 125.2021484375 L 85.31104278564453 125.2021484375 L 92.0791015625 106.8408203125 L 92.0791015625 106.8408203125 L 99.85595703125 86.74268341064453 L 114.18505859375 125.2021484375 L 126.21044921875 125.2021484375 Z" class="c1" transform="translate(454.25858 -125.19785)" stroke-width="0" stroke-linejoin="miter" stroke-miterlimit="2" fill="#4c791e" stroke="#4c791e"/> </g>
        <g id="path288045" aria-label="T" transform="translate(0 310.99600000000004) translate(590.2524359 44.952079999999995) scale(1.11) translate(-575.51413 50.472)"> <path class="c1" d="M120.19775,74.79785v9.50488H79.80225v-9.50488H120.19775z M94.2749,89.99121 c5.25684-4.17627,11.2334,0,11.2334,0v35.21094H94.20361V89.99121H94.2749z" transform="translate(495.71188 -125.26985)" stroke-width="0" stroke-linejoin="miter" stroke-miterlimit="2" fill="#4c791e" stroke="#4c791e"/> </g>
        <g id="path288047" aria-label="U" transform="translate(0 310.99600000000004) translate(645.3529691000001 44.952079999999995) scale(1.11) translate(-621.15425 50.472)"> <path class="c1" d="M121.70996,74.50977v29.30664c0,13.39355-8.28027,21.67383-21.60156,21.67383 c-13.46484,0-21.81836-8.28027-21.81836-21.67383V74.50977H89.5957v29.30664c0,7.05664,4.24805,11.80957,10.58496,11.80957 c6.26367,0,10.29688-4.6084,10.29688-11.7373V74.58203L121.70996,74.50977z" transform="translate(542.86421 -124.98177)" stroke-width="0" stroke-linejoin="miter" stroke-miterlimit="2" fill="#4c791e" stroke="#4c791e"/> </g>
        <g id="path288049" aria-label="S" transform="translate(0 310.99600000000004) translate(705.2337173000002 44.39263999999999) scale(1.11) translate(-671.10087 50.976)"> <path class="c1" d="M104.28467,95.17578c7.48926,2.23193,15.91309,4.82422,15.91309,15.40918 c0,9.2168-7.41602,15.19336-18.86523,15.19336c-7.7041,0-15.69727-2.95215-21.53027-7.84863l4.32129-9.07227 c4.89551,4.32031,12.09668,7.41602,17.35352,7.41602c4.24805,0,6.76855-1.87207,6.76855-5.04004 c0-4.17676-4.6084-5.54492-9.9375-7.12891c-7.34473-2.16016-15.69727-4.6084-15.69727-14.90527 c0-9.07275,7.34473-14.97754,18.79395-14.97754c6.55273,0,13.39258,2.01611,18.43359,5.40039l-4.24902,9.28906 c-5.1123-3.02441-11.30469-5.11279-15.26465-5.11279c-3.67285,0-5.83301,1.58447-5.83301,4.24854 c0,4.03223,4.53711,5.40039,9.7207,6.98486L104.28467,95.17578z" transform="translate(591.29861 -125.19768)" stroke-width="0" stroke-linejoin="miter" stroke-miterlimit="2" fill="#4c791e" stroke="#4c791e"/> </g>
               </g>
      <image id="icon" x="0" y="0" style="display: none;" xlink:href=""/>
    </g>
  </g></g></svg>