<svg xmlns:dc="http://purl.org/dc/elements/1.1/" xmlns:cc="http://creativecommons.org/ns#" xmlns:rdf="http://www.w3.org/1999/02/22-rdf-syntax-ns#" xmlns:svg="http://www.w3.org/2000/svg" xmlns="http://www.w3.org/2000/svg" xmlns:xlink="http://www.w3.org/1999/xlink" id="svg359554" viewBox="0 0 1024 768" height="768px" width="1024px" version="1.1">
  <metadata id="metadata359560">
    <rdf:rdf>
      <cc:work rdf:about="">
        <dc:format>image/svg+xml</dc:format>
        <dc:type rdf:resource="http://purl.org/dc/dcmitype/StillImage"></dc:type>
      </cc:work>
    </rdf:rdf>
  </metadata>
  <defs id="defs359558"></defs>
  <linearGradient spreadMethod="pad" y2="30%" x2="-10%" y1="120%" x1="30%" id="3d_gradient2-logo-7772d405-b6bb-41ce-96c8-c8e5b6b6af48">
    <stop id="stop359535" stop-opacity="1" stop-color="#ffffff" offset="0%"></stop>
    <stop id="stop359537" stop-opacity="1" stop-color="#000000" offset="100%"></stop>
  </linearGradient>
  <linearGradient gradientTransform="rotate(-30)" spreadMethod="pad" y2="30%" x2="-10%" y1="120%" x1="30%" id="3d_gradient3-logo-7772d405-b6bb-41ce-96c8-c8e5b6b6af48">
    <stop id="stop359540" stop-opacity="1" stop-color="#ffffff" offset="0%"></stop>
    <stop id="stop359542" stop-opacity="1" stop-color="#cccccc" offset="50%"></stop>
    <stop id="stop359544" stop-opacity="1" stop-color="#000000" offset="100%"></stop>
  </linearGradient>
  <g id="logo-group">
    <image xlink:href="" id="container" x="272" y="144" width="480" height="480" style="display: none;" transform="translate(0 0)"></image>
    <g id="logo-center" transform="translate(5.684341886080802e-14 0)">
      <image xlink:href="" id="icon_container" x="0" y="0" style="display: none;"></image>
      <g id="slogan" style="font-style:oblique;font-weight:300;font-size:32px;line-height:1;font-family:Raleway;font-variant-ligatures:none;text-align:center;text-anchor:middle" transform="translate(0 0)"></g>
      <g id="title" style="font-style:normal;font-weight:800;font-size:72px;line-height:1;font-family:'Montserrat ExtraBold Alt1';font-variant-ligatures:none;text-align:center;text-anchor:middle" transform="translate(0 0)">
        <path id="path359563" style="font-style:normal;font-weight:800;font-size:72px;line-height:1;font-family:'Montserrat ExtraBold Alt1';font-variant-ligatures:none;text-align:center;text-anchor:middle" d="m 233.6795,-50.4 h -14.256 v 18.936 h -19.44 V -50.4 h -14.256 V 0 h 14.256 v -19.656 h 19.44 V 0 h 14.256 z" stroke-width="0" stroke-linejoin="miter" stroke-miterlimit="2" fill="#482767" stroke="#482767" transform="translate(0 301.996) translate(260.7879350500001 62.6) scale(0.77) translate(-185.7275 50.4)"></path>
        <path id="path359565" style="font-style:normal;font-weight:800;font-size:72px;line-height:1;font-family:'Montserrat ExtraBold Alt1';font-variant-ligatures:none;text-align:center;text-anchor:middle" d="m 283.76562,-50.4 h -39.96 v 11.016 h 39.96 z m 0,19.512 h -39.96 v 10.656 h 39.96 z m -39.96,19.872 V 0 h 39.96 v -11.016 z" stroke-width="0" stroke-linejoin="miter" stroke-miterlimit="2" fill="#4f2969" stroke="#4f2969" transform="translate(0 301.996) translate(305.5080874500001 62.6) scale(0.77) translate(-243.80562 50.4)"></path>
        <path id="path359567" style="font-style:normal;font-weight:800;font-size:72px;line-height:1;font-family:'Montserrat ExtraBold Alt1';font-variant-ligatures:none;text-align:center;text-anchor:middle" d="m 322.34862,-50.4 h -14.04 L 286.06063,0 h 14.54399 l 3.96,-9.792 4.17601,-10.512 6.47999,-16.128 6.48,16.128 4.176,10.512 3.96001,9.792 h 14.832 z" stroke-width="0" stroke-linejoin="miter" stroke-miterlimit="2" fill="#552c6b" stroke="#552c6b" transform="translate(0 301.996) translate(338.0444451500001 62.6) scale(0.77) translate(-286.06063 50.4)"></path>
        <path id="path359569" style="font-style:normal;font-weight:800;font-size:72px;line-height:1;font-family:'Montserrat ExtraBold Alt1';font-variant-ligatures:none;text-align:center;text-anchor:middle" d="M 348.71188,-50.4 V 0 h 38.30399 v -11.304 h -24.048 V -50.4 Z" stroke-width="0" stroke-linejoin="miter" stroke-miterlimit="2" fill="#5c2e6d" stroke="#5c2e6d" transform="translate(0 301.996) translate(386.28590765000007 62.6) scale(0.77) translate(-348.71188 50.4)"></path>
        <path id="path359571" style="font-style:normal;font-weight:800;font-size:72px;line-height:1;font-family:'Montserrat ExtraBold Alt1';font-variant-ligatures:none;text-align:center;text-anchor:middle" d="M 398.67425,-39.096 V 0 h 14.256 v -39.096 h 15.408 V -50.4 h -45.144 v 11.304 z" stroke-width="0" stroke-linejoin="miter" stroke-miterlimit="2" fill="#62316f" stroke="#62316f" transform="translate(0 301.996) translate(412.8373325500001 62.6) scale(0.77) translate(-383.19425 50.4)"></path>
        <path id="path359573" style="font-style:normal;font-weight:800;font-size:72px;line-height:1;font-family:'Montserrat ExtraBold Alt1';font-variant-ligatures:none;text-align:center;text-anchor:middle" d="m 481.60138,-50.4 h -14.25601 v 18.936 h -19.44 V -50.4 H 433.64938 V 0 h 14.25599 v -19.656 h 19.44 V 0 h 14.25601 z" stroke-width="0" stroke-linejoin="miter" stroke-miterlimit="2" fill="#693371" stroke="#693371" transform="translate(0 301.996) translate(451.6877826500001 62.6) scale(0.77) translate(-433.64938 50.4)"></path>
        <path id="path359575" style="font-style:normal;font-weight:800;font-size:72px;line-height:1;font-family:'Montserrat ExtraBold Alt1';font-variant-ligatures:none;text-align:center;text-anchor:middle" d="m 518.7275,-18.072 19.296,-32.328 h -13.824 l -11.952,20.016 -11.952,-20.016 h -15.048 l 19.224,32.112 V 0 h 14.256 z" stroke-width="0" stroke-linejoin="miter" stroke-miterlimit="2" fill="#703674" stroke="#703674" transform="translate(0 301.996) translate(491.4183350500001 62.6) scale(0.77) translate(-485.2475 50.4)"></path>
        <path id="path359577" style="font-style:normal;font-weight:800;font-size:72px;line-height:1;font-family:'Montserrat ExtraBold Alt1';font-variant-ligatures:none;text-align:center;text-anchor:middle" d="m 546.35637,-0.504 c 3.816,1.008 7.77601,1.512 11.88,1.512 4.75201,0 8.856,-0.72 12.24,-2.16 3.312,-1.44 5.832,-3.456 7.56001,-5.904 1.65599,-2.448 2.51999,-5.184 2.51999,-8.208 0,-3.456 -0.936,-6.264 -2.808,-8.28 -1.87199,-2.016 -4.032,-3.528 -6.552,-4.464 -2.52,-0.936 -5.688,-1.8 -9.504,-2.664 -3.456,-0.72 -5.904,-1.368 -7.41599,-2.088 -1.58401,-0.648 -2.304,-1.656 -2.304,-3.024 0,-1.296 0.64799,-2.376 1.944,-3.24 1.29599,-0.864 3.312,-1.296 6.192,-1.296 4.46399,0 9.144,1.296 13.96799,3.888 l 4.39201,-10.584 c -2.448,-1.44 -5.32801,-2.52 -8.496,-3.24 -3.24,-0.72 -6.48,-1.152 -9.792,-1.152 -4.89601,0 -9,0.72 -12.312,2.16 -3.31201,1.44 -5.832,3.456 -7.48801,5.904 -1.728,2.448 -2.52,5.256 -2.52,8.28 0,3.528 0.864,6.336 2.736,8.352 1.80001,2.088 3.96,3.6 6.552,4.536 2.52,0.936 5.688,1.8 9.504,2.592 3.45601,0.792 5.904,1.512 7.488,2.232 1.584,0.72 2.37601,1.728 2.37601,3.168 0,2.736 -2.736,4.104 -8.20801,4.104 -2.88,0 -5.832,-0.432 -8.784,-1.368 -3.024,-0.864 -5.616,-2.088 -7.848,-3.6 l -4.68,10.512 c 2.37601,1.728 5.47201,3.024 9.36,4.032 z" stroke-width="0" stroke-linejoin="miter" stroke-miterlimit="2" fill="#763876" stroke="#763876" transform="translate(0 301.996) translate(531.26496495 61.82384) scale(0.77) translate(-536.99637 51.408)"></path>
        <path id="path359579" style="font-style:normal;font-weight:800;font-size:72px;line-height:1;font-family:'Montserrat ExtraBold Alt1';font-variant-ligatures:none;text-align:center;text-anchor:middle" d="m 597.94325,-2.304 c 4.176,2.232 8.928,3.312 14.256,3.312 4.608,0 8.712,-0.792 12.456,-2.448 3.672,-1.584 6.768,-3.96 9.216,-7.056 l -9.072,-8.208 c -3.312,3.96 -7.272,5.904 -11.88,5.904 -2.736,0 -5.184,-0.576 -7.344,-1.8 -2.16,-1.152 -3.816,-2.88 -4.968,-5.04 -1.152,-2.16 -1.728,-4.68 -1.728,-7.56 0,-2.808 0.576,-5.328 1.728,-7.488 1.152,-2.16 2.808,-3.888 4.968,-5.112 2.16,-1.152 4.608,-1.8 7.344,-1.8 4.608,0 8.568,2.016 11.88,5.904 l 9.072,-8.208 c -2.448,-3.024 -5.544,-5.4 -9.216,-7.056 -3.744,-1.584 -7.848,-2.448 -12.456,-2.448 -5.328,0 -10.08,1.152 -14.256,3.384 -4.176,2.232 -7.488,5.328 -9.864,9.288 -2.448,4.032 -3.6,8.496 -3.6,13.536 0,5.04 1.152,9.576 3.6,13.536 2.376,4.032 5.688,7.128 9.864,9.36 z" stroke-width="0" stroke-linejoin="miter" stroke-miterlimit="2" fill="#7d3a78" stroke="#7d3a78" transform="translate(0 301.996) translate(567.82678255 61.82384) scale(0.77) translate(-584.47925 51.408)"></path>
        <path id="path359581" style="font-style:normal;font-weight:800;font-size:72px;line-height:1;font-family:'Montserrat ExtraBold Alt1';font-variant-ligatures:none;text-align:center;text-anchor:middle" d="m 675.7955,-15.84 c 3.096,-1.512 5.544,-3.6 7.272,-6.336 1.728,-2.736 2.592,-5.904 2.592,-9.576 0,-3.744 -0.936,-7.056 -2.736,-9.864 -1.872,-2.808 -4.464,-4.968 -7.776,-6.48 -3.384,-1.512 -7.344,-2.304 -11.88,-2.304 h -23.04 v 11.232 h 22.176 c 2.88,0 5.112,0.648 6.624,1.944 1.44,1.296 2.232,3.168 2.232,5.472 0,2.376 -0.792,4.176 -2.232,5.472 -1.512,1.296 -3.744,1.872 -6.624,1.872 h -22.176 V 0 h 14.256 v -13.392 h 7.776 L 671.4035,0 h 15.264 z" stroke-width="0" stroke-linejoin="miter" stroke-miterlimit="2" fill="#833d7a" stroke="#833d7a" transform="translate(0 301.996) translate(610.7529350499999 62.6) scale(0.77) translate(-640.2275 50.4)"></path>
        <path id="path359583" style="font-style:normal;font-weight:800;font-size:72px;line-height:1;font-family:'Montserrat ExtraBold Alt1';font-variant-ligatures:none;text-align:center;text-anchor:middle" d="m 733.48437,-50.4 h -39.96 v 11.016 h 39.96 z m 0,19.512 h -39.96 v 10.656 h 39.96 z m -39.96,19.872 V 0 h 39.96 v -11.016 z" stroke-width="0" stroke-linejoin="miter" stroke-miterlimit="2" fill="#8a3f7c" stroke="#8a3f7c" transform="translate(0 301.996) translate(651.7915249499998 62.6) scale(0.77) translate(-693.52437 50.4)"></path>
        <path id="path359585" style="font-style:normal;font-weight:800;font-size:72px;line-height:1;font-family:'Montserrat ExtraBold Alt1';font-variant-ligatures:none;text-align:center;text-anchor:middle" d="m 781.85937,-50.4 h -39.96 v 11.016 h 39.96 z m 0,19.512 h -39.96 v 10.656 h 39.96 z m -39.96,19.872 V 0 h 39.96 v -11.016 z" stroke-width="0" stroke-linejoin="miter" stroke-miterlimit="2" fill="#90427e" stroke="#90427e" transform="translate(0 301.996) translate(689.0402749499998 62.6) scale(0.77) translate(-741.89937 50.4)"></path>
        <path id="path359587" style="font-style:normal;font-weight:800;font-size:72px;line-height:1;font-family:'Montserrat ExtraBold Alt1';font-variant-ligatures:none;text-align:center;text-anchor:middle" d="m 790.27437,0 h 13.96801 V -8.496 L 790.27437,-26.28 Z m 33.984,-50.4 v 9.144 l 13.968,16.848 V -50.4 Z m 0,26.856 -22.248,-26.856 h -11.736 v 6.696 L 804.24238,-26.856 826.49037,0 h 11.736 v -5.832 l -13.968,-17.784 z" stroke-width="0" stroke-linejoin="miter" stroke-miterlimit="2" fill="#974480" stroke="#974480" transform="translate(0 301.996) translate(726.2890249499998 62.6) scale(0.77) translate(-790.27437 50.4)"></path>
      </g>
      <image xlink:href="" id="icon" x="0" y="0" style="display: none;"></image>
    </g>
  </g>
</svg>